# xmcd
#
# Track frame offsets: 
#        150
#        9935
#        21903
#        34928
#        54587
#        68400
#        84845
#        98700
#        111578
#        125243
#        141871
#        158490
#        177002
#
# Disc length: 2663 seconds
#
# Revision: 0
# Processed by: cddbd v1.5.1PL0 Copyright (c) Steve Scherf et al.
# Submitted via: ExactAudioCopy v0.95b1
#
DISCID=a00a650d
DTITLE=Billy Dee - When The Vow Breaks
DYEAR=2005
DGENRE=Country
TTITLE0=No More (Me And You)
TTITLE1=Paper Sack
TTITLE2=Truly
TTITLE3=When The Vow Breaks
TTITLE4=Not Tonight (I've Got A Heartache)
TTITLE5=Too Much To Dream
TTITLE6=Heartache Time
TTITLE7=Only Time Will Tell
TTITLE8=Angel Eyes
TTITLE9=You Missed Out On Love
TTITLE10=Only Hell (My Mama Ever Raised)
TTITLE11=Memory Hall Of Fame
TTITLE12=That Memory Of Mine
EXTD=
EXTT0=
EXTT1=
EXTT2=
EXTT3=
EXTT4=
EXTT5=
EXTT6=
EXTT7=
EXTT8=
EXTT9=
EXTT10=
EXTT11=
EXTT12=
PLAYORDER=
